<svg xmlns="http://www.w3.org/2000/svg" viewBox="0 0 823 375" role="img" aria-label="Serhat Soruklu signature" preserveAspectRatio="xMidYMid meet">
  <path fill="#111111" fill-rule="evenodd" d="M 296.00 199.00 L 299.00 203.00 L 303.00 203.00 L 312.00 209.00 L 312.00 207.00 L 304.00 200.00 Z M 630.00 179.00 L 631.00 181.00 L 635.00 182.00 L 638.00 185.00 L 647.00 187.00 L 655.00 192.00 L 664.00 194.00 L 663.00 192.00 L 654.00 189.00 L 644.00 183.00 Z M 606.00 179.00 L 605.00 181.00 L 606.00 195.00 L 604.00 199.00 L 609.00 204.00 L 610.00 220.00 L 613.00 222.00 L 612.00 229.00 L 614.00 238.00 L 617.00 245.00 L 617.00 249.00 L 621.00 254.00 L 621.00 257.00 L 626.00 267.00 L 629.00 270.00 L 629.00 273.00 L 631.00 274.00 L 633.00 272.00 L 629.00 261.00 L 623.00 250.00 L 618.00 234.00 L 618.00 230.00 L 615.00 225.00 L 616.00 221.00 L 614.00 216.00 L 614.00 209.00 L 612.00 205.00 L 611.00 187.00 L 608.00 180.00 Z M 562.00 173.00 L 561.00 181.00 L 564.00 197.00 L 561.00 200.00 L 559.00 199.00 L 557.00 200.00 L 562.00 202.00 L 566.00 207.00 L 568.00 220.00 L 570.00 224.00 L 571.00 241.00 L 578.00 265.00 L 581.00 268.00 L 581.00 275.00 L 584.00 281.00 L 586.00 278.00 L 583.00 272.00 L 583.00 265.00 L 576.00 244.00 L 575.00 232.00 L 573.00 228.00 L 573.00 219.00 L 571.00 214.00 L 572.00 206.00 L 582.00 207.00 L 579.00 204.00 L 574.00 204.00 L 568.00 199.00 L 565.00 178.00 Z M 256.00 165.00 L 249.00 165.00 L 242.00 168.00 L 238.00 167.00 L 233.00 170.00 L 225.00 170.00 L 209.00 174.00 L 195.00 180.00 L 192.00 180.00 L 186.00 185.00 L 184.00 185.00 L 181.00 190.00 L 183.00 190.00 L 187.00 186.00 L 197.00 181.00 L 203.00 180.00 L 208.00 177.00 L 217.00 176.00 L 232.00 171.00 L 239.00 171.00 L 248.00 168.00 L 253.00 168.00 Z M 687.00 162.00 L 688.00 165.00 L 694.00 165.00 L 701.00 169.00 L 706.00 168.00 L 711.00 171.00 L 714.00 171.00 L 717.00 174.00 L 727.00 177.00 L 729.00 179.00 L 736.00 180.00 L 721.00 172.00 L 718.00 172.00 L 712.00 169.00 L 707.00 169.00 L 703.00 166.00 L 696.00 164.00 L 693.00 165.00 Z M 572.00 161.00 L 584.00 167.00 L 601.00 171.00 L 607.00 175.00 L 618.00 175.00 L 619.00 174.00 L 607.00 170.00 L 605.00 168.00 L 589.00 166.00 L 584.00 163.00 L 578.00 163.00 Z M 491.00 144.00 L 491.00 146.00 L 484.00 151.00 L 492.00 157.00 L 495.00 190.00 L 499.00 194.00 L 499.00 201.00 L 508.00 222.00 L 511.00 226.00 L 513.00 233.00 L 515.00 235.00 L 518.00 245.00 L 525.00 259.00 L 528.00 270.00 L 531.00 270.00 L 530.00 263.00 L 528.00 260.00 L 526.00 241.00 L 529.00 230.00 L 529.00 223.00 L 533.00 202.00 L 536.00 194.00 L 540.00 194.00 L 542.00 196.00 L 550.00 198.00 L 549.00 196.00 L 542.00 193.00 L 537.00 187.00 L 538.00 178.00 L 540.00 175.00 L 540.00 167.00 L 542.00 165.00 L 540.00 162.00 L 543.00 159.00 L 544.00 154.00 L 548.00 151.00 L 554.00 158.00 L 557.00 166.00 L 560.00 165.00 L 558.00 160.00 L 553.00 155.00 L 553.00 151.00 L 555.00 149.00 L 551.00 146.00 L 548.00 146.00 L 540.00 150.00 L 541.00 161.00 L 539.00 163.00 L 537.00 170.00 L 537.00 178.00 L 535.00 181.00 L 535.00 185.00 L 531.00 188.00 L 524.00 184.00 L 527.00 189.00 L 531.00 190.00 L 533.00 193.00 L 532.00 195.00 L 533.00 203.00 L 530.00 211.00 L 530.00 218.00 L 526.00 237.00 L 522.00 241.00 L 518.00 234.00 L 516.00 226.00 L 511.00 217.00 L 509.00 210.00 L 506.00 206.00 L 500.00 188.00 L 500.00 183.00 L 496.00 169.00 L 496.00 154.00 L 499.00 150.00 L 493.00 144.00 Z M 47.00 190.00 L 47.00 200.00 L 51.00 206.00 L 63.00 212.00 L 77.00 215.00 L 81.00 219.00 L 83.00 219.00 L 84.00 222.00 L 94.00 232.00 L 104.00 240.00 L 106.00 240.00 L 117.00 250.00 L 129.00 257.00 L 152.00 264.00 L 156.00 261.00 L 161.00 261.00 L 161.00 260.00 L 148.00 259.00 L 127.00 251.00 L 105.00 237.00 L 102.00 233.00 L 99.00 232.00 L 87.00 221.00 L 84.00 220.00 L 83.00 216.00 L 84.00 215.00 L 110.00 215.00 L 125.00 217.00 L 133.00 216.00 L 143.00 218.00 L 160.00 218.00 L 176.00 221.00 L 179.00 224.00 L 181.00 233.00 L 191.00 246.00 L 202.00 255.00 L 198.00 259.00 L 182.00 259.00 L 180.00 260.00 L 182.00 263.00 L 187.00 263.00 L 190.00 261.00 L 198.00 262.00 L 200.00 260.00 L 203.00 261.00 L 210.00 260.00 L 217.00 262.00 L 232.00 270.00 L 250.00 275.00 L 256.00 278.00 L 317.00 290.00 L 326.00 290.00 L 333.00 292.00 L 351.00 293.00 L 359.00 295.00 L 397.00 296.00 L 398.00 297.00 L 442.00 297.00 L 449.00 295.00 L 457.00 295.00 L 459.00 293.00 L 412.00 293.00 L 411.00 292.00 L 372.00 291.00 L 352.00 288.00 L 340.00 288.00 L 333.00 286.00 L 323.00 286.00 L 302.00 281.00 L 294.00 281.00 L 283.00 278.00 L 277.00 278.00 L 267.00 274.00 L 257.00 273.00 L 237.00 267.00 L 221.00 260.00 L 220.00 256.00 L 222.00 254.00 L 229.00 254.00 L 239.00 259.00 L 242.00 259.00 L 244.00 261.00 L 249.00 261.00 L 258.00 264.00 L 259.00 263.00 L 271.00 264.00 L 281.00 262.00 L 283.00 260.00 L 276.00 261.00 L 253.00 260.00 L 249.00 258.00 L 245.00 258.00 L 243.00 256.00 L 240.00 256.00 L 230.00 251.00 L 226.00 247.00 L 223.00 241.00 L 216.00 234.00 L 206.00 229.00 L 200.00 223.00 L 200.00 220.00 L 202.00 217.00 L 213.00 219.00 L 217.00 221.00 L 222.00 220.00 L 206.00 216.00 L 203.00 210.00 L 210.00 206.00 L 218.00 205.00 L 223.00 202.00 L 232.00 200.00 L 242.00 200.00 L 251.00 197.00 L 257.00 198.00 L 273.00 197.00 L 277.00 199.00 L 290.00 199.00 L 291.00 197.00 L 279.00 194.00 L 264.00 194.00 L 261.00 196.00 L 259.00 195.00 L 245.00 196.00 L 241.00 195.00 L 240.00 193.00 L 251.00 189.00 L 256.00 189.00 L 260.00 186.00 L 265.00 186.00 L 282.00 181.00 L 286.00 181.00 L 289.00 178.00 L 297.00 178.00 L 304.00 175.00 L 314.00 176.00 L 316.00 174.00 L 319.00 174.00 L 322.00 177.00 L 322.00 194.00 L 321.00 195.00 L 322.00 207.00 L 318.00 211.00 L 315.00 212.00 L 305.00 223.00 L 296.00 223.00 L 292.00 225.00 L 272.00 225.00 L 277.00 227.00 L 282.00 226.00 L 288.00 227.00 L 296.00 226.00 L 299.00 224.00 L 306.00 223.00 L 310.00 220.00 L 313.00 220.00 L 318.00 230.00 L 322.00 230.00 L 325.00 233.00 L 326.00 240.00 L 329.00 242.00 L 328.00 250.00 L 340.00 270.00 L 343.00 267.00 L 339.00 243.00 L 339.00 233.00 L 340.00 232.00 L 351.00 230.00 L 355.00 227.00 L 366.00 223.00 L 384.00 230.00 L 389.00 233.00 L 391.00 236.00 L 384.00 242.00 L 369.00 262.00 L 367.00 267.00 L 367.00 277.00 L 368.00 278.00 L 371.00 272.00 L 371.00 267.00 L 375.00 263.00 L 377.00 256.00 L 379.00 254.00 L 378.00 251.00 L 382.00 249.00 L 393.00 237.00 L 396.00 236.00 L 410.00 242.00 L 414.00 239.00 L 413.00 237.00 L 410.00 238.00 L 405.00 237.00 L 400.00 232.00 L 400.00 229.00 L 407.00 223.00 L 411.00 222.00 L 415.00 225.00 L 413.00 233.00 L 415.00 231.00 L 416.00 227.00 L 415.00 224.00 L 420.00 213.00 L 420.00 210.00 L 417.00 209.00 L 411.00 217.00 L 413.00 220.00 L 411.00 222.00 L 408.00 220.00 L 405.00 224.00 L 401.00 225.00 L 395.00 231.00 L 392.00 231.00 L 386.00 227.00 L 373.00 222.00 L 370.00 216.00 L 363.00 217.00 L 345.00 209.00 L 338.00 209.00 L 335.00 206.00 L 330.00 192.00 L 330.00 187.00 L 327.00 176.00 L 332.00 171.00 L 344.00 170.00 L 348.00 168.00 L 355.00 168.00 L 357.00 166.00 L 363.00 167.00 L 366.00 166.00 L 367.00 162.00 L 362.00 164.00 L 359.00 163.00 L 348.00 165.00 L 333.00 169.00 L 330.00 166.00 L 331.00 163.00 L 338.00 156.00 L 340.00 156.00 L 344.00 152.00 L 349.00 151.00 L 351.00 149.00 L 374.00 148.00 L 385.00 152.00 L 389.00 156.00 L 386.00 160.00 L 381.00 160.00 L 378.00 162.00 L 374.00 161.00 L 375.00 166.00 L 379.00 164.00 L 378.00 163.00 L 379.00 161.00 L 385.00 161.00 L 386.00 163.00 L 390.00 161.00 L 395.00 165.00 L 397.00 175.00 L 396.00 181.00 L 390.00 193.00 L 384.00 202.00 L 375.00 211.00 L 375.00 213.00 L 385.00 205.00 L 397.00 186.00 L 399.00 178.00 L 399.00 162.00 L 409.00 159.00 L 415.00 159.00 L 419.00 163.00 L 420.00 177.00 L 423.00 186.00 L 422.00 195.00 L 425.00 199.00 L 423.00 201.00 L 419.00 200.00 L 411.00 201.00 L 411.00 202.00 L 416.00 203.00 L 429.00 210.00 L 433.00 223.00 L 440.00 237.00 L 457.00 261.00 L 460.00 262.00 L 462.00 259.00 L 445.00 236.00 L 437.00 221.00 L 436.00 214.00 L 439.00 213.00 L 444.00 217.00 L 464.00 225.00 L 469.00 229.00 L 480.00 234.00 L 485.00 234.00 L 488.00 231.00 L 489.00 226.00 L 492.00 221.00 L 492.00 203.00 L 490.00 206.00 L 490.00 218.00 L 488.00 222.00 L 489.00 226.00 L 483.00 231.00 L 481.00 231.00 L 460.00 219.00 L 438.00 209.00 L 433.00 203.00 L 433.00 200.00 L 429.00 196.00 L 426.00 185.00 L 427.00 181.00 L 424.00 166.00 L 424.00 160.00 L 426.00 158.00 L 446.00 156.00 L 449.00 153.00 L 453.00 153.00 L 457.00 155.00 L 460.00 153.00 L 467.00 154.00 L 470.00 152.00 L 478.00 153.00 L 480.00 150.00 L 473.00 152.00 L 460.00 151.00 L 458.00 153.00 L 441.00 153.00 L 439.00 155.00 L 432.00 154.00 L 426.00 156.00 L 418.00 154.00 L 413.00 157.00 L 399.00 159.00 L 385.00 148.00 L 377.00 145.00 L 367.00 145.00 L 366.00 144.00 L 363.00 144.00 L 361.00 147.00 L 351.00 146.00 L 343.00 149.00 L 332.00 156.00 L 325.00 165.00 L 320.00 162.00 L 315.00 167.00 L 309.00 170.00 L 302.00 169.00 L 305.00 172.00 L 303.00 174.00 L 294.00 175.00 L 292.00 177.00 L 284.00 177.00 L 282.00 180.00 L 278.00 179.00 L 257.00 183.00 L 248.00 187.00 L 244.00 187.00 L 241.00 190.00 L 234.00 190.00 L 222.00 193.00 L 217.00 196.00 L 197.00 203.00 L 193.00 206.00 L 188.00 206.00 L 182.00 200.00 L 183.00 197.00 L 182.00 195.00 L 179.00 194.00 L 180.00 200.00 L 186.00 208.00 L 179.00 217.00 L 138.00 212.00 L 91.00 211.00 L 87.00 213.00 L 81.00 212.00 L 71.00 203.00 L 70.00 195.00 L 69.00 195.00 L 70.00 206.00 L 68.00 208.00 L 65.00 208.00 L 55.00 203.00 L 52.00 200.00 L 51.00 190.00 L 62.00 176.00 L 91.00 150.00 L 107.00 143.00 L 119.00 141.00 L 121.00 138.00 L 130.00 136.00 L 138.00 131.00 L 146.00 131.00 L 149.00 129.00 L 154.00 130.00 L 156.00 128.00 L 164.00 129.00 L 171.00 128.00 L 175.00 130.00 L 183.00 131.00 L 184.00 130.00 L 188.00 131.00 L 190.00 129.00 L 188.00 127.00 L 177.00 125.00 L 154.00 126.00 L 150.00 128.00 L 143.00 127.00 L 100.00 140.00 L 92.00 144.00 L 85.00 151.00 L 81.00 153.00 L 77.00 158.00 L 74.00 159.00 L 55.00 178.00 Z M 329.00 233.00 L 332.00 233.00 L 336.00 238.00 L 336.00 245.00 L 338.00 255.00 L 336.00 257.00 L 331.00 251.00 L 331.00 248.00 L 329.00 245.00 L 329.00 240.00 L 327.00 236.00 Z M 185.00 226.00 L 190.00 225.00 L 197.00 228.00 L 204.00 237.00 L 207.00 238.00 L 220.00 251.00 L 217.00 254.00 L 209.00 253.00 L 198.00 245.00 L 188.00 235.00 L 185.00 229.00 Z M 322.00 219.00 L 324.00 219.00 L 326.00 222.00 L 326.00 225.00 L 323.00 229.00 L 319.00 227.00 L 319.00 223.00 Z M 316.00 219.00 L 317.00 217.00 L 319.00 218.00 L 317.00 220.00 Z M 186.00 216.00 L 189.00 213.00 L 194.00 213.00 L 197.00 219.00 L 194.00 222.00 L 189.00 221.00 L 186.00 218.00 Z M 337.00 212.00 L 339.00 211.00 L 349.00 214.00 L 358.00 218.00 L 360.00 221.00 L 352.00 227.00 L 349.00 227.00 L 346.00 229.00 L 340.00 229.00 L 337.00 223.00 Z M 327.00 210.00 L 330.00 210.00 L 333.00 213.00 L 334.00 226.00 L 331.00 230.00 L 327.00 227.00 L 325.00 212.00 Z M 326.00 194.00 L 329.00 196.00 L 331.00 203.00 L 328.00 209.00 L 324.00 205.00 L 324.00 199.00 Z"/>
</svg>
